<?xml version="1.0" encoding="utf-8"?>
<!-- Generator: Adobe Illustrator 16.0.0, SVG Export Plug-In . SVG Version: 6.00 Build 0)  -->
<!DOCTYPE svg PUBLIC "-//W3C//DTD SVG 1.1//EN" "http://www.w3.org/Graphics/SVG/1.1/DTD/svg11.dtd">
<svg version="1.1" id="Layer_2" xmlns="http://www.w3.org/2000/svg" xmlns:xlink="http://www.w3.org/1999/xlink" x="0px" y="0px"
	 width="72.5px" height="49.5px" viewBox="0 50.5 72.5 49.5" enable-background="new 0 50.5 72.5 49.5" xml:space="preserve">
<path d="M77.625,59.25"/>
<path d="M23.438,67.193"/>
<path fill="#FFFFFF" d="M19.544,90.127l1.244-6.956c1.318-3.427-0.539-22.241-0.78-23.185c-0.241-0.944,0-0.948,0-0.948
	s20.298-2.397,38.104,0.648c0,0,0.281,0.015,0.095,0.794c0,0-2.929,21.489-1.019,22.685c0,0-5.735,0.797-15.27,5.278
	c0,0-9.659,4.795-11.027,6.677c0,0-1.243,1.121,0.352,0.176c16.414-9.722,26.536-10.982,26.536-10.982s8.347-0.22,8.259,4.876
	c0,0-0.526,5.316-13.794,3.559c0,0-5.086-1.713-12.125,0.835c-7.039,2.55-1.758,0.659-1.758,0.659
	c-14.322,6.15-29.522,3.865-27.326-3.778c0,0-0.296-4.158,9.092-7.277l-1.419,6.677c0,0-0.048,2.505,0.981-0.23"/>
</svg>
