<?xml version="1.0" encoding="utf-8"?>
<!-- Generator: Adobe Illustrator 16.0.0, SVG Export Plug-In . SVG Version: 6.00 Build 0)  -->
<!DOCTYPE svg PUBLIC "-//W3C//DTD SVG 1.1//EN" "http://www.w3.org/Graphics/SVG/1.1/DTD/svg11.dtd">
<svg version="1.1" id="Layer_1" xmlns="http://www.w3.org/2000/svg" xmlns:xlink="http://www.w3.org/1999/xlink" x="0px" y="0px"
	 width="444px" height="497.944px" viewBox="0 0 444 497.944" enable-background="new 0 0 444 497.944" xml:space="preserve">
<rect x="-192" y="-44.056" display="none" fill="#573211" stroke="#000000" stroke-miterlimit="10" width="591" height="814"/>
<g id="Light_Green">
	<rect x="276.7" y="156.429" fill="#8DC63F" width="5.563" height="5.568"/>
	<rect x="282.264" y="195.409" fill="#8DC63F" width="5.572" height="5.568"/>
	<rect x="271.128" y="150.861" fill="#8DC63F" width="5.572" height="5.568"/>
	<rect x="282.264" y="184.268" fill="#8DC63F" width="5.572" height="5.568"/>
	<rect x="282.264" y="161.997" fill="#8DC63F" width="5.572" height="5.568"/>
	<rect x="282.264" y="173.132" fill="#8DC63F" width="5.572" height="5.568"/>
	<rect x="282.264" y="150.861" fill="#8DC63F" width="5.572" height="5.568"/>
	<rect x="271.128" y="161.997" fill="#8DC63F" width="5.572" height="5.568"/>
	<rect x="137.477" y="150.851" fill="#8DC63F" width="16.708" height="61.249"/>
	<rect x="271.128" y="206.547" fill="#8DC63F" width="5.572" height="5.568"/>
	<rect x="204.298" y="150.851" fill="#8DC63F" width="11.136" height="61.249"/>
	<rect x="271.128" y="195.409" fill="#8DC63F" width="5.572" height="5.568"/>
	<rect x="271.128" y="173.132" fill="#8DC63F" width="5.572" height="5.568"/>
	<rect x="271.128" y="184.268" fill="#8DC63F" width="5.572" height="5.568"/>
	<rect x="276.7" y="178.7" fill="#8DC63F" width="5.563" height="5.568"/>
	<polygon fill="#8DC63F" points="293.387,156.419 287.823,156.419 287.823,161.987 293.387,161.987 293.387,167.557 
		287.823,167.557 287.823,173.125 293.387,173.125 293.387,178.693 287.823,178.693 287.823,184.26 293.387,184.26 293.387,189.828 
		287.823,189.828 287.823,195.396 293.387,195.396 293.387,200.964 287.823,200.964 287.823,206.532 293.387,206.532 293.387,212.1 
		304.522,212.1 304.522,150.851 293.387,150.851 	"/>
	<rect x="282.264" y="206.547" fill="#8DC63F" width="5.572" height="5.568"/>
	<rect x="276.7" y="167.564" fill="#8DC63F" width="5.563" height="5.568"/>
	<rect x="276.7" y="200.977" fill="#8DC63F" width="5.563" height="5.57"/>
	<rect x="276.7" y="189.836" fill="#8DC63F" width="5.563" height="5.573"/>
	<polygon fill="#8DC63F" points="137.477,139.715 137.477,145.283 165.32,145.283 165.32,212.1 198.729,212.1 198.729,145.283 
		304.522,145.283 304.522,139.715 	"/>
	<rect x="265.564" y="223.249" fill="#8DC63F" width="5.563" height="5.574"/>
	<rect x="271.128" y="295.641" fill="#8DC63F" width="5.572" height="5.568"/>
	<rect x="265.564" y="290.073" fill="#8DC63F" width="5.563" height="5.568"/>
	<rect x="265.564" y="301.209" fill="#8DC63F" width="5.563" height="5.568"/>
	<polygon fill="#8DC63F" points="276.688,228.805 282.251,228.805 282.251,234.374 276.688,234.374 276.688,239.941 
		282.251,239.941 282.251,245.509 276.688,245.509 276.688,251.077 282.251,251.077 282.251,256.649 276.688,256.649 
		276.688,262.217 282.251,262.217 282.251,267.785 276.688,267.785 276.688,273.353 282.251,273.353 282.251,278.92 276.688,278.92 
		276.688,284.488 282.251,284.488 282.251,290.056 276.688,290.056 276.688,295.624 282.251,295.624 282.251,301.192 
		276.688,301.192 276.688,306.762 282.251,306.762 282.251,312.33 276.688,312.33 276.688,317.897 282.251,317.897 282.251,323.465 
		276.688,323.465 276.688,329.033 282.251,329.033 282.251,334.601 276.688,334.601 276.688,340.169 282.251,340.169 
		282.251,345.739 276.688,345.739 276.688,351.307 282.251,351.307 282.251,356.875 276.688,356.875 276.688,362.442 
		282.251,362.442 282.251,368.01 276.688,368.01 276.688,373.578 293.387,373.578 293.387,223.238 276.688,223.238 	"/>
	<rect x="265.564" y="368.027" fill="#8DC63F" width="5.563" height="5.568"/>
	<rect x="271.128" y="284.505" fill="#8DC63F" width="5.572" height="5.568"/>
	<rect x="271.128" y="228.823" fill="#8DC63F" width="5.572" height="5.568"/>
	<rect x="265.564" y="256.662" fill="#8DC63F" width="5.563" height="5.568"/>
	<rect x="271.128" y="273.37" fill="#8DC63F" width="5.572" height="5.568"/>
	<rect x="271.128" y="262.229" fill="#8DC63F" width="5.572" height="5.568"/>
	<rect x="271.128" y="251.094" fill="#8DC63F" width="5.572" height="5.567"/>
	<rect x="265.564" y="245.526" fill="#8DC63F" width="5.563" height="5.568"/>
	<rect x="271.128" y="239.958" fill="#8DC63F" width="5.572" height="5.567"/>
	<rect x="265.564" y="234.391" fill="#8DC63F" width="5.563" height="5.568"/>
	<rect x="265.564" y="267.797" fill="#8DC63F" width="5.563" height="5.572"/>
	<rect x="265.564" y="278.938" fill="#8DC63F" width="5.563" height="5.568"/>
	<rect x="271.128" y="362.459" fill="#8DC63F" width="5.572" height="5.568"/>
	<rect x="265.564" y="356.89" fill="#8DC63F" width="5.563" height="5.57"/>
	<rect x="271.128" y="351.322" fill="#8DC63F" width="5.572" height="5.568"/>
	<rect x="148.617" y="223.238" fill="#8DC63F" width="16.703" height="150.34"/>
	<rect x="209.865" y="223.238" fill="#8DC63F" width="11.136" height="150.34"/>
	<rect x="265.564" y="345.754" fill="#8DC63F" width="5.563" height="5.568"/>
	<rect x="176.456" y="223.238" fill="#8DC63F" width="27.842" height="150.34"/>
	<rect x="271.128" y="317.915" fill="#8DC63F" width="5.572" height="5.568"/>
	<rect x="271.128" y="340.186" fill="#8DC63F" width="5.572" height="5.568"/>
	<rect x="265.564" y="312.347" fill="#8DC63F" width="5.563" height="5.568"/>
	<rect x="271.128" y="306.777" fill="#8DC63F" width="5.572" height="5.57"/>
	<rect x="265.564" y="323.482" fill="#8DC63F" width="5.563" height="5.568"/>
	<rect x="271.128" y="329.05" fill="#8DC63F" width="5.572" height="5.568"/>
	<rect x="265.564" y="334.618" fill="#8DC63F" width="5.563" height="5.568"/>
	<polygon fill="#8DC63F" points="259.992,106.311 265.564,106.311 265.564,95.175 254.429,95.175 254.429,100.743 259.992,100.743 	
		"/>
	<polygon fill="#8DC63F" points="237.708,117.441 243.271,117.441 243.271,111.873 248.844,111.873 248.844,106.305 
		254.407,106.305 254.407,100.737 243.271,100.737 243.271,106.305 237.708,106.305 237.708,111.873 232.14,111.873 232.14,123.009 
		237.708,123.009 	"/>
	<polygon fill="#8DC63F" points="204.298,128.58 204.298,123.009 198.729,123.009 198.729,117.441 193.162,117.441 193.162,111.873 
		187.594,111.873 187.594,106.305 182.026,106.305 182.026,117.441 187.594,117.441 187.594,128.58 193.162,128.58 193.162,134.147 
		248.844,134.147 248.844,128.58 254.407,128.58 254.407,117.441 259.979,117.441 259.979,111.878 259.979,106.305 254.407,106.305 
		254.407,111.873 248.844,111.873 248.844,117.441 243.271,117.441 243.271,123.009 237.708,123.009 237.708,128.58 232.14,128.58 
		232.14,123.009 226.568,123.009 226.568,95.169 215.434,95.169 215.434,123.009 209.865,123.009 209.865,128.58 	"/>
	<polygon fill="#8DC63F" points="182.032,100.743 187.601,100.743 187.601,95.175 176.465,95.175 176.465,106.311 182.032,106.311 	
		"/>
	<polygon fill="#8DC63F" points="193.162,106.305 193.162,111.873 198.729,111.873 198.729,117.441 204.298,117.441 
		204.298,123.009 209.865,123.009 209.865,111.873 204.298,111.873 204.298,106.305 198.729,106.305 198.729,100.737 
		187.594,100.737 187.594,106.305 	"/>
	<rect x="187.601" y="17.214" fill="#8DC63F" width="5.567" height="5.567"/>
	<rect x="182.032" y="28.351" fill="#8DC63F" width="5.568" height="5.568"/>
	<rect x="176.465" y="39.487" fill="#8DC63F" width="5.567" height="5.569"/>
	<rect x="193.168" y="33.919" fill="#8DC63F" width="5.568" height="5.568"/>
	<rect x="187.601" y="45.056" fill="#8DC63F" width="5.567" height="5.571"/>
	<rect x="182.032" y="56.194" fill="#8DC63F" width="5.568" height="5.568"/>
	<rect x="182.032" y="67.331" fill="#8DC63F" width="5.568" height="5.57"/>
	<rect x="198.736" y="61.762" fill="#8DC63F" width="5.567" height="5.569"/>
	<rect x="193.168" y="72.901" fill="#8DC63F" width="5.568" height="5.57"/>
	<rect x="198.736" y="84.039" fill="#8DC63F" width="5.567" height="5.568"/>
	<rect x="209.872" y="78.471" fill="#8DC63F" width="5.572" height="5.568"/>
	<rect x="209.872" y="89.607" fill="#8DC63F" width="5.572" height="5.568"/>
	<rect x="226.581" y="89.607" fill="#8DC63F" width="5.567" height="5.568"/>
	<rect x="226.581" y="78.471" fill="#8DC63F" width="5.567" height="5.568"/>
	<rect x="237.717" y="84.039" fill="#8DC63F" width="5.576" height="5.568"/>
	<rect x="243.293" y="72.901" fill="#8DC63F" width="5.563" height="5.57"/>
	<rect x="237.717" y="61.762" fill="#8DC63F" width="5.576" height="5.569"/>
	<rect x="254.429" y="67.331" fill="#8DC63F" width="5.563" height="5.57"/>
	<rect x="254.429" y="56.194" fill="#8DC63F" width="5.563" height="5.568"/>
	<rect x="248.856" y="45.056" fill="#8DC63F" width="5.572" height="5.571"/>
	<rect x="259.992" y="39.487" fill="#8DC63F" width="5.572" height="5.569"/>
	<rect x="254.429" y="28.351" fill="#8DC63F" width="5.563" height="5.568"/>
	<rect x="243.293" y="33.919" fill="#8DC63F" width="5.563" height="5.568"/>
	<rect x="248.856" y="17.214" fill="#8DC63F" width="5.572" height="5.567"/>
</g>
<g id="Dark_Green">
	<polygon fill="#3BAE49" points="137.477,145.283 137.477,150.851 154.185,150.851 154.185,212.1 165.32,212.1 165.32,145.283 	"/>
	<rect x="282.264" y="156.429" fill="#3BAE49" width="5.572" height="5.568"/>
	<rect x="276.7" y="184.268" fill="#3BAE49" width="5.563" height="5.568"/>
	<rect x="276.7" y="195.409" fill="#3BAE49" width="5.563" height="5.568"/>
	<rect x="276.7" y="206.547" fill="#3BAE49" width="5.563" height="5.568"/>
	<rect x="282.264" y="200.977" fill="#3BAE49" width="5.572" height="5.57"/>
	<rect x="287.836" y="206.547" fill="#3BAE49" width="5.572" height="5.568"/>
	<rect x="287.836" y="195.409" fill="#3BAE49" width="5.572" height="5.568"/>
	<rect x="287.836" y="161.997" fill="#3BAE49" width="5.572" height="5.568"/>
	<rect x="287.836" y="184.268" fill="#3BAE49" width="5.572" height="5.568"/>
	<polygon fill="#3BAE49" points="198.729,212.1 204.298,212.1 204.298,150.851 215.434,150.851 215.434,212.1 271.115,212.1 
		271.115,206.532 276.688,206.532 276.688,200.964 271.115,200.964 271.115,195.396 276.688,195.396 276.688,189.828 
		271.115,189.828 271.115,184.26 276.688,184.26 276.688,178.693 271.115,178.693 271.115,173.125 276.688,173.125 276.688,167.557 
		271.115,167.557 271.115,161.987 276.688,161.987 276.688,156.419 271.115,156.419 271.115,150.851 276.688,150.851 
		276.688,156.419 282.251,156.419 282.251,150.851 287.823,150.851 287.823,156.419 293.387,156.419 293.387,150.851 
		304.522,150.851 304.522,145.283 198.729,145.283 	"/>
	<rect x="287.836" y="173.132" fill="#3BAE49" width="5.572" height="5.568"/>
	<rect x="282.264" y="167.564" fill="#3BAE49" width="5.572" height="5.568"/>
	<rect x="282.264" y="178.7" fill="#3BAE49" width="5.572" height="5.568"/>
	<rect x="276.7" y="173.132" fill="#3BAE49" width="5.563" height="5.568"/>
	<rect x="276.7" y="161.997" fill="#3BAE49" width="5.563" height="5.568"/>
	<rect x="282.264" y="189.836" fill="#3BAE49" width="5.572" height="5.573"/>
	<rect x="165.32" y="223.238" fill="#3BAE49" width="11.136" height="150.34"/>
	<rect x="204.298" y="223.238" fill="#3BAE49" width="5.567" height="150.34"/>
	<rect x="276.7" y="317.915" fill="#3BAE49" width="5.563" height="5.568"/>
	<rect x="276.7" y="295.641" fill="#3BAE49" width="5.563" height="5.568"/>
	<rect x="276.7" y="329.05" fill="#3BAE49" width="5.563" height="5.568"/>
	<rect x="276.7" y="306.777" fill="#3BAE49" width="5.563" height="5.57"/>
	<rect x="276.7" y="340.186" fill="#3BAE49" width="5.563" height="5.568"/>
	<rect x="276.7" y="239.958" fill="#3BAE49" width="5.563" height="5.567"/>
	<rect x="276.7" y="284.505" fill="#3BAE49" width="5.563" height="5.568"/>
	<rect x="276.7" y="228.823" fill="#3BAE49" width="5.563" height="5.568"/>
	<rect x="276.7" y="251.094" fill="#3BAE49" width="5.563" height="5.567"/>
	<rect x="276.7" y="273.37" fill="#3BAE49" width="5.563" height="5.568"/>
	<rect x="271.128" y="267.797" fill="#3BAE49" width="5.572" height="5.572"/>
	<rect x="276.7" y="262.229" fill="#3BAE49" width="5.563" height="5.568"/>
	<rect x="271.128" y="290.073" fill="#3BAE49" width="5.572" height="5.568"/>
	<rect x="271.128" y="234.391" fill="#3BAE49" width="5.572" height="5.568"/>
	<rect x="271.128" y="223.249" fill="#3BAE49" width="5.572" height="5.574"/>
	<polygon fill="#3BAE49" points="271.115,368.01 271.115,362.442 265.543,362.442 265.543,356.875 271.115,356.875 271.115,351.307 
		265.543,351.307 265.543,345.739 271.115,345.739 271.115,340.169 265.543,340.169 265.543,334.601 271.115,334.601 
		271.115,329.033 265.543,329.033 265.543,323.465 271.115,323.465 271.115,317.897 265.543,317.897 265.543,312.33 271.115,312.33 
		271.115,306.762 265.543,306.762 265.543,301.192 271.115,301.192 271.115,295.624 265.543,295.624 265.543,290.056 
		271.115,290.056 271.115,284.488 265.543,284.488 265.543,278.92 271.115,278.92 271.115,273.353 265.543,273.353 265.543,267.785 
		271.115,267.785 271.115,262.217 265.543,262.217 265.543,256.649 271.115,256.649 271.115,251.077 265.543,251.077 
		265.543,245.509 271.115,245.509 271.115,239.941 265.543,239.941 265.543,234.374 271.115,234.374 271.115,228.805 
		265.543,228.805 265.543,223.238 221.001,223.238 221.001,373.578 265.543,373.578 265.543,368.01 	"/>
	<rect x="271.128" y="245.526" fill="#3BAE49" width="5.572" height="5.568"/>
	<rect x="271.128" y="256.662" fill="#3BAE49" width="5.572" height="5.568"/>
	<rect x="271.128" y="278.938" fill="#3BAE49" width="5.572" height="5.568"/>
	<rect x="271.128" y="301.209" fill="#3BAE49" width="5.572" height="5.568"/>
	<rect x="276.7" y="362.459" fill="#3BAE49" width="5.563" height="5.568"/>
	<rect x="271.128" y="345.754" fill="#3BAE49" width="5.572" height="5.568"/>
	<rect x="271.128" y="356.89" fill="#3BAE49" width="5.572" height="5.57"/>
	<rect x="276.7" y="351.322" fill="#3BAE49" width="5.563" height="5.568"/>
	<rect x="271.128" y="368.027" fill="#3BAE49" width="5.572" height="5.568"/>
	<rect x="271.128" y="334.618" fill="#3BAE49" width="5.572" height="5.568"/>
	<rect x="271.128" y="312.347" fill="#3BAE49" width="5.572" height="5.568"/>
	<rect x="271.128" y="323.482" fill="#3BAE49" width="5.572" height="5.568"/>
	<path fill="#3BAE49" d="M226.568,89.602h5.571v5.568h5.568v-5.562v-5.574h5.563v5.569h5.572v-5.569h5.563v-5.568h5.572v-5.568
		h-5.572v-5.569h5.585h5.551V45.056h-5.563v-5.569h5.563v-5.568h-5.551h-5.585v-5.568h5.572V17.214h-5.572v5.567h-5.563v5.569
		h-5.572v5.568h5.572v5.568h-5.551h-5.585v11.14v5.566h-5.568v11.136h-5.571v11.137h5.571v5.568h-5.559h-11.137h-5.579v-5.568h5.568
		V67.328h-5.568V56.192h-5.567v-5.566v-11.14h-5.562h-5.574v-5.568h5.567v-5.568h-5.567v-5.569h-5.568v-5.567h-5.567v11.137h5.567
		v5.568h-5.562h-5.576v5.568h5.57v5.569h-5.57v22.272h5.576h5.562v5.569h-5.567v5.568h5.567v5.568h5.568v5.569h5.567v-5.569h5.568
		v5.574v5.562h5.567v-5.568h5.568v5.568h11.135V89.602z M259.992,56.194v5.568h-5.563v-5.568H259.992z M248.856,45.056h5.572v5.571
		h-5.572V45.056z M248.856,72.901v5.57h-5.563v-5.57H248.856z M237.717,61.762h5.576v5.569h-5.576V61.762z M187.601,61.762h-5.568
		v-5.568h5.568V61.762z M187.601,50.626v-5.571h5.567v5.571H187.601z M198.736,78.471h-5.568v-5.57h5.568V78.471z M204.304,67.331
		h-5.567v-5.569h5.567V67.331z"/>
	<rect x="187.601" y="11.646" fill="#3BAE49" width="5.567" height="5.568"/>
	<rect x="248.856" y="11.646" fill="#3BAE49" width="5.572" height="5.568"/>
	<rect x="182.032" y="100.743" fill="#3BAE49" width="5.568" height="5.568"/>
	<rect x="187.601" y="106.311" fill="#3BAE49" width="5.567" height="5.568"/>
	<rect x="193.168" y="111.878" fill="#3BAE49" width="5.568" height="5.57"/>
	<rect x="198.736" y="117.448" fill="#3BAE49" width="5.567" height="5.57"/>
	<rect x="204.304" y="123.019" fill="#3BAE49" width="5.568" height="5.568"/>
	<rect x="254.429" y="100.743" fill="#3BAE49" width="5.563" height="5.568"/>
	<rect x="248.856" y="106.311" fill="#3BAE49" width="5.572" height="5.568"/>
	<rect x="243.293" y="111.878" fill="#3BAE49" width="5.563" height="5.57"/>
	<rect x="237.717" y="117.448" fill="#3BAE49" width="5.576" height="5.57"/>
	<rect x="232.148" y="123.019" fill="#3BAE49" width="5.568" height="5.568"/>
</g>
<g id="White">
	<polygon fill="#FFFFFF" points="237.703,429.261 226.568,429.261 226.568,484.944 271.113,484.944 271.113,473.806 
		237.703,473.806 	"/>
	<polygon fill="#FFFFFF" points="360.203,451.535 349.067,451.535 349.067,462.67 360.203,462.67 360.203,484.944 371.339,484.944 
		371.339,429.261 360.203,429.261 	"/>
	<polygon fill="#FFFFFF" points="282.248,429.261 282.248,440.399 293.384,440.399 293.384,473.806 282.248,473.806 
		282.248,484.944 315.66,484.944 315.66,473.806 304.52,473.806 304.52,440.399 315.66,440.399 315.66,429.261 	"/>
	<polygon fill="#FFFFFF" points="427.023,440.399 427.023,429.261 382.475,429.261 382.475,484.944 427.023,484.944 
		427.023,473.806 393.614,473.806 393.614,462.67 427.023,462.67 427.023,451.535 393.614,451.535 393.614,440.399 	"/>
	<polygon fill="#FFFFFF" points="170.887,429.261 170.887,484.944 215.43,484.944 215.43,473.806 182.022,473.806 182.022,462.67 
		215.43,462.67 215.43,451.535 182.022,451.535 182.022,440.399 215.43,440.399 215.43,429.261 	"/>
	<path fill="#FFFFFF" d="M115.202,429.261v55.683h11.136v-11.138h33.411v-44.545H115.202z M148.613,462.67h-22.275v-22.271h22.275
		V462.67z"/>
	<path fill="#FFFFFF" d="M14.977,429.261v55.683h11.136v-11.138h33.409v-44.545H14.977z M48.386,462.67H26.112v-22.271h22.273
		V462.67z"/>
	<polygon fill="#FFFFFF" points="70.657,429.261 70.657,440.399 81.795,440.399 81.795,473.806 70.657,473.806 70.657,484.944 
		104.066,484.944 104.066,473.806 92.931,473.806 92.931,440.399 104.066,440.399 104.066,429.261 	"/>
	<polygon fill="#FFFFFF" points="337.932,440.399 337.932,429.261 326.796,429.261 326.796,484.944 337.932,484.944 
		337.932,451.535 349.067,451.535 349.067,440.399 	"/>
	<polygon fill="#FFFFFF" points="193.168,28.351 198.736,28.351 198.736,22.782 204.304,22.782 204.304,17.214 193.168,17.214 
		193.168,22.782 	"/>
	<polygon fill="#FFFFFF" points="198.736,39.487 204.304,39.487 204.304,33.919 209.872,33.919 209.872,28.351 198.736,28.351 
		198.736,33.919 	"/>
	<polygon fill="#FFFFFF" points="209.865,50.624 209.865,45.056 215.434,45.056 215.434,39.487 204.298,39.487 204.298,50.624 	"/>
	<rect x="209.872" y="56.194" fill="#FFFFFF" width="5.572" height="11.137"/>
	<polygon fill="#FFFFFF" points="248.848,22.782 248.848,17.214 237.712,17.214 237.712,22.782 243.28,22.782 243.28,28.351 
		248.848,28.351 	"/>
	<polygon fill="#FFFFFF" points="243.28,33.919 243.28,28.351 232.145,28.351 232.145,33.919 237.712,33.919 237.712,39.487 
		243.28,39.487 	"/>
	<polygon fill="#FFFFFF" points="226.576,39.487 226.576,45.056 232.145,45.056 232.145,50.624 237.712,50.624 237.712,39.487 	"/>
	<rect x="226.581" y="56.194" fill="#FFFFFF" width="5.567" height="11.137"/>
</g>
</svg>
