<?xml version="1.0" encoding="utf-8"?>
<!-- Generator: Adobe Illustrator 16.0.0, SVG Export Plug-In . SVG Version: 6.00 Build 0)  -->
<!DOCTYPE svg PUBLIC "-//W3C//DTD SVG 1.1//EN" "http://www.w3.org/Graphics/SVG/1.1/DTD/svg11.dtd">
<svg version="1.1" id="Layer_1" xmlns="http://www.w3.org/2000/svg" xmlns:xlink="http://www.w3.org/1999/xlink" x="0px" y="0px"
	 width="120.858px" height="36.363px" viewBox="0 0 120.858 36.363" enable-background="new 0 0 120.858 36.363"
	 xml:space="preserve">
<g id="I22lbK_1_">
	<g>
		<path fill-rule="evenodd" clip-rule="evenodd" fill="#FFFFFF" d="M56.112,18.296c1.925-1,3.924-2.093,6.369-1.369
			c1.164,0.344,1.695-0.8,2.298-1.499c1.58-1.832,3.562-2.385,5.862-2.034c1.932,0.294,2.623,1.193,2.441,3.121
			c-0.137,1.462-0.869,2.672-1.743,3.795c-1.74,2.238-3.733,4.227-5.951,5.999c-0.716,0.57-1.802,0.877-1.837,2.229
			c1.058,1.086,2.152,0.504,3.132-0.131c3.285-2.129,6.252-4.412,7.905-8.294c1.904-4.477,4.472-8.672,6.738-12.998
			c0.824-1.574,2.246-1.827,3.601-1.196c1.687,0.785,0.959,2.189,0.278,3.321c-1.004,1.675-2.108,3.291-3.185,4.922
			c-2.276,3.451-4.364,6.999-5.811,10.895c-0.454,1.22-0.907,2.412-0.384,4.072c2.289-1.552,4.432-2.929,5.41-5.45
			c2.212-5.694,5.509-10.83,8.256-16.247c0.195-0.383,0.409-0.787,0.714-1.077c0.999-0.951,2.246-0.959,3.299-0.32
			c1.002,0.61,0.802,1.766,0.306,2.641c-0.964,1.696-2.029,3.338-3.118,4.959c-2.429,3.615-4.675,7.329-6.16,11.441
			c-0.423,1.168-1.188,2.357-0.283,3.938c2.127-1.366,4.077-2.685,4.781-5.306c0.838-3.115,2.635-5.71,4.825-8.016
			c2.249-2.368,4.084-2.342,6.217,0.159c0.815,0.957,1.635,1.207,2.815,1.148c1.799-0.088,1.805-0.004,3.545,1.021
			c-0.292,1.419-1.635,1.441-2.552,1.539c-2.225,0.233-3.081,1.458-3.603,3.471c-0.656,2.54-1.944,4.828-3.778,6.756
			c-1.999,2.099-3.266,2.396-5.707,0.861c-1.23-0.774-2.02-0.87-3.1,0.13c-1.947,1.802-4.082,1.842-6.207,0.265
			c-0.81-0.601-1.465-0.511-2.359-0.053c-3.586,1.837-4.525,1.596-7.781-1.834c-3.179,1.922-6.629,4.775-10.351,1.199
			c-3.116-2.996-1.652-6.566-0.424-10.109c-3.948,1.212-6.6,3.662-8.311,7.184c-0.378,0.776-0.591,1.632-0.947,2.422
			c-0.458,1.014-1.037,2.163-2.383,1.604c-1.439-0.598-1.818-1.943-1.044-3.252c1.12-1.893,1.88-3.905,2.513-5.982
			c0.441-1.452,0.885-2.911,1.194-4.394c0.203-0.973,0.163-2.041,1.462-2.188c1.187-0.134,1.727,0.688,2.141,1.637
			C55.368,17.671,55.531,18.086,56.112,18.296z M97.339,17.682c-4.036,2.778-6.034,7.845-4.249,10.63
			C95.581,25.225,97.65,22.156,97.339,17.682z M69.31,16.257c-2.845,1.84-4.387,3.713-5.011,6.304
			C66.318,21.061,68.162,19.423,69.31,16.257z"/>
		<path fill-rule="evenodd" clip-rule="evenodd" fill="#FFFFFF" d="M33.949,20.77c0,2.817,0.052,5.636-0.016,8.452
			c-0.059,2.426-0.493,2.923-2.833,2.949c-5.851,0.063-11.704,0.065-17.554-0.007c-2.248-0.026-2.803-0.638-2.829-3.01
			c-0.061-5.743-0.004-11.486-0.036-17.229c-0.011-2.015,0.906-3.042,2.919-3.044c5.852-0.008,11.702-0.004,17.554-0.004
			c2.088,0,2.844,1.154,2.814,3.116c-0.044,2.925-0.011,5.851-0.011,8.777C33.955,20.77,33.951,20.77,33.949,20.77z M21.107,19.968
			c0.002,0,0.004,0,0.007,0c0-1.301,0.003-2.603,0-3.904c-0.014-4.814-0.1-4.896-4.938-4.708c-2.739,0.106-2.999,0.306-3.053,2.993
			c-0.063,3.144-0.028,6.29-0.025,9.435c0.004,4.8,0.111,4.898,4.941,4.706c0.108-0.005,0.217-0.011,0.326-0.005
			c1.885,0.113,2.829-0.685,2.758-2.661C21.052,23.875,21.107,21.92,21.107,19.968z M23.531,16.538
			c-0.005,5.546,0.599,6.072,5.836,5.425c1.45-0.18,2.162-0.801,2.154-2.256c-0.011-2.058-0.007-4.115-0.011-6.172
			c-0.002-1.479-0.79-2.026-2.223-2.179C24.051,10.797,23.536,11.224,23.531,16.538z"/>
		<path fill-rule="evenodd" clip-rule="evenodd" fill="#FFFFFF" d="M44.453,13.769c-0.77-0.198-1.075-0.315-1.39-0.352
			c-1.217-0.141-2.551-0.217-2.398-1.933c0.145-1.634,1.499-1.276,2.516-1.25c3.065,0.076,6.033-0.657,9.042-1.032
			c1.685-0.21,3.244-0.054,4.682,0.868c0.554,0.355,1.089,0.789,0.794,1.569c-0.254,0.67-0.761,1.035-1.505,0.996
			c-0.215-0.011-0.428-0.059-0.643-0.083c-5.545-0.625-5.564-0.609-7.993,4.239c-2.106,4.204-3.52,8.625-4.235,13.271
			c-0.147,0.954-0.152,2.143-1.561,1.997c-1.309-0.137-2.25-0.934-2.288-2.323c-0.024-0.843,0.256-1.701,0.447-2.541
			C40.949,22.646,42.78,18.355,44.453,13.769z"/>
	</g>
</g>
</svg>
